<svg width="16" height="16" viewBox="0 0 16 16" fill="none" xmlns="http://www.w3.org/2000/svg">
<g clip-path="url(#clip0_261_8739)">
<path d="M16 0H8V16H16V0Z" fill="#E8E8E8"/>
<path d="M7.53839 1.11072C7.70919 0.700073 8.29091 0.700072 8.46171 1.11071L9.99879 4.80631C10.0708 4.97943 10.2336 5.09771 10.4205 5.11269L14.4102 5.43255C14.8535 5.46809 15.0333 6.02134 14.6955 6.31068L11.6558 8.91453C11.5134 9.03651 11.4512 9.2279 11.4947 9.41027L12.4234 13.3036C12.5266 13.7362 12.056 14.0781 11.6764 13.8463L8.26068 11.76C8.10067 11.6623 7.89943 11.6623 7.73942 11.76L4.32368 13.8463C3.94413 14.0781 3.4735 13.7362 3.5767 13.3036L4.50539 9.41027C4.54889 9.2279 4.4867 9.03651 4.34431 8.91453L1.30458 6.31068C0.966812 6.02134 1.14657 5.46809 1.5899 5.43255L5.5796 5.11269C5.7665 5.09771 5.9293 4.97943 6.00131 4.80631L7.53839 1.11072Z" fill="#343839"/>
</g>
<defs>
<clipPath id="clip0_261_8739">
<rect width="8" height="16" fill="white" transform="translate(8)"/>
</clipPath>
</defs>
</svg>
