<svg width="17" height="16" viewBox="0 0 17 16" fill="none" xmlns="http://www.w3.org/2000/svg">
<path d="M8.41969 1.10997C8.59048 0.699319 9.17221 0.699318 9.34301 1.10996L10.8801 4.80556C10.9521 4.97868 11.1149 5.09696 11.3018 5.11194L15.2915 5.4318C15.7348 5.46734 15.9146 6.02059 15.5768 6.30993L12.5371 8.91378C12.3947 9.03576 12.3325 9.22715 12.376 9.40952L13.3047 13.3028C13.4079 13.7354 12.9373 14.0773 12.5577 13.8455L9.14198 11.7592C8.98197 11.6615 8.78073 11.6615 8.62072 11.7592L5.20498 13.8455C4.82543 14.0773 4.3548 13.7354 4.458 13.3028L5.38668 9.40952C5.43019 9.22715 5.368 9.03576 5.22561 8.91378L2.18587 6.30993C1.84811 6.02059 2.02787 5.46734 2.47119 5.4318L6.4609 5.11194C6.64779 5.09696 6.8106 4.97868 6.8826 4.80556L8.41969 1.10997Z" fill="#343839"/>
</svg>
